<?xml version="1.0" encoding="UTF-8" standalone="no"?>
<!-- Generator: Adobe Illustrator 22.1.0, SVG Export Plug-In . SVG Version: 6.00 Build 0)  -->

<svg
   xmlns:dc="http://purl.org/dc/elements/1.1/"
   xmlns:cc="http://creativecommons.org/ns#"
   xmlns:rdf="http://www.w3.org/1999/02/22-rdf-syntax-ns#"
   xmlns:svg="http://www.w3.org/2000/svg"
   xmlns="http://www.w3.org/2000/svg"
   xmlns:sodipodi="http://sodipodi.sourceforge.net/DTD/sodipodi-0.dtd"
   xmlns:inkscape="http://www.inkscape.org/namespaces/inkscape"
   version="1.1"
   id="Ebene_1"
   x="0px"
   y="0px"
   viewBox="0 0 270.49999 74.6"
   xml:space="preserve"
   sodipodi:docname="HeaderIcon.svg"
   width="270.5"
   height="74.599998"
   inkscape:version="0.92.3 (2405546, 2018-03-11)"><metadata
   id="metadata97"><rdf:RDF><cc:Work
       rdf:about=""><dc:format>image/svg+xml</dc:format><dc:type
         rdf:resource="http://purl.org/dc/dcmitype/StillImage" /><dc:title></dc:title></cc:Work></rdf:RDF></metadata><defs
   id="defs95"><clipPath
     clipPathUnits="userSpaceOnUse"
     id="clipPath906"><rect
       style="opacity:1;fill:#000000;fill-opacity:0"
       id="rect908"
       width="276.01938"
       height="82.047768"
       x="283.15396"
       y="256.853"
       rx="125.467"
       ry="0.167217" /></clipPath><clipPath
     clipPathUnits="userSpaceOnUse"
     id="clipPath910"><rect
       style="opacity:1;fill:#000000;fill-opacity:0"
       id="rect912"
       width="276.01938"
       height="82.047768"
       x="283.15396"
       y="256.853"
       rx="125.467"
       ry="0.167217" /></clipPath></defs><sodipodi:namedview
   pagecolor="#ffffff"
   bordercolor="#666666"
   borderopacity="1"
   objecttolerance="10"
   gridtolerance="10"
   guidetolerance="10"
   inkscape:pageopacity="0"
   inkscape:pageshadow="2"
   inkscape:window-width="1346"
   inkscape:window-height="697"
   id="namedview93"
   showgrid="false"
   fit-margin-left="0"
   fit-margin-top="0"
   fit-margin-right="0"
   fit-margin-bottom="0"
   inkscape:zoom="0.5606491"
   inkscape:cx="265.14402"
   inkscape:cy="18.356085"
   inkscape:window-x="0"
   inkscape:window-y="0"
   inkscape:window-maximized="0"
   inkscape:current-layer="Ebene_1" />
<style
   type="text/css"
   id="style2">
	.st0{opacity:0.45;fill:#008D36;}
	.st1{fill:#1D71B8;}
	.st2{fill:#3AAA35;}
	.st3{opacity:0.45;fill:#1D71B8;}
	.st4{fill:#878787;}
</style>
<g
   id="g12"
   clip-path="url(#clipPath910)"
   transform="translate(-285,-259.5)">
	<path
   class="st0"
   d="m 308.5,281.9 18.5,-4.3 c 1.3,-0.3 2.7,0 3.4,0.5 l 15,11.9 -18.6,4.3 c -1.5,0.4 -2.7,0 -3.4,-0.5 z"
   id="path4"
   inkscape:connector-curvature="0"
   style="opacity:0.45;fill:#008d36" />
	<path
   class="st1"
   d="m 323.4,317.6 0.1,-19 c 0,-1.3 -0.6,-2.6 -1.2,-3.2 l -15,-11.9 v 19.1 c -0.1,1.6 0.6,2.7 1.3,3.2 z"
   id="path6"
   inkscape:connector-curvature="0"
   style="fill:#1d71b8" />
	<path
   class="st2"
   d="m 323.1,293.6 0.1,-19 c 0,-1.3 -0.6,-2.6 -1.2,-3.2 l -15,-11.9 v 19.1 c -0.1,1.6 0.6,2.7 1.3,3.2 z"
   id="path8"
   inkscape:connector-curvature="0"
   style="fill:#3aaa35" />
	<path
   class="st3"
   d="m 285,287.1 18.5,-4.3 c 1.3,-0.3 2.7,0 3.4,0.5 l 15,11.9 -18.6,4.3 c -1.5,0.4 -2.7,0 -3.4,-0.5 z"
   id="path10"
   inkscape:connector-curvature="0"
   style="opacity:0.45;fill:#1d71b8" />
</g>
<g
   id="g90"
   clip-path="url(#clipPath906)"
   transform="translate(-285,-259.5)">
	<path
   class="st1"
   d="m 341.4,301.1 c 0.2,-0.2 0.4,-0.3 0.6,-0.3 0.4,0 0.8,0.4 0.8,0.8 0,0.2 -0.1,0.4 -0.2,0.6 l -4.9,5.5 5.7,8 c 0.1,0.1 0.2,0.3 0.2,0.5 0,0.4 -0.4,0.8 -0.8,0.8 -0.4,0 -0.6,-0.2 -0.7,-0.4 l -5.5,-7.8 -2.1,2.3 v 5 c 0,0.4 -0.4,0.8 -0.8,0.8 -0.4,0 -0.8,-0.4 -0.8,-0.8 v -14.6 c 0,-0.4 0.4,-0.8 0.8,-0.8 0.4,0 0.8,0.4 0.8,0.8 v 7.3 z"
   id="path14"
   inkscape:connector-curvature="0"
   style="fill:#1d71b8" />
	<path
   class="st1"
   d="m 344.9,308.9 c 0,-5.6 2.8,-8.3 7.3,-8.3 4.6,0 7.3,2.7 7.3,8.3 0,5.5 -2.8,8.2 -7.3,8.2 -4.5,0 -7.3,-2.7 -7.3,-8.2 z m 1.6,0 c 0,4.6 2.1,6.8 5.7,6.8 3.6,0 5.7,-2.2 5.7,-6.8 0,-4.6 -2.1,-6.8 -5.7,-6.8 -3.6,0 -5.7,2.2 -5.7,6.8 z"
   id="path16"
   inkscape:connector-curvature="0"
   style="fill:#1d71b8" />
	<path
   class="st1"
   d="m 369.1,313.8 -4.9,-9.2 v 11.6 c 0,0.4 -0.4,0.8 -0.8,0.8 -0.4,0 -0.8,-0.4 -0.8,-0.8 v -14.7 c 0,-0.4 0.4,-0.8 0.8,-0.8 0.4,0 0.6,0.2 0.7,0.4 l 5.7,10.7 5.7,-10.7 c 0.1,-0.2 0.3,-0.4 0.7,-0.4 0.4,0 0.8,0.4 0.8,0.8 v 14.7 c 0,0.4 -0.4,0.8 -0.8,0.8 -0.4,0 -0.8,-0.4 -0.8,-0.8 v -11.6 l -4.9,9.2 c -0.2,0.3 -0.4,0.4 -0.7,0.4 -0.3,0 -0.6,-0.1 -0.7,-0.4 z"
   id="path18"
   inkscape:connector-curvature="0"
   style="fill:#1d71b8" />
	<path
   class="st1"
   d="m 382.7,316.2 c 0,0.4 -0.4,0.8 -0.8,0.8 -0.4,0 -0.8,-0.4 -0.8,-0.8 v -14.4 c 0,-0.4 0.4,-0.8 0.8,-0.8 h 4.7 c 2.5,0 4.5,1.5 4.5,4.6 0,3.1 -1.9,4.6 -4.5,4.6 h -3.9 z m 0,-7.5 h 3.6 c 1.9,0 3.1,-1.1 3.1,-3.2 0,-2.1 -1.2,-3.1 -3.1,-3.1 h -3.6 z"
   id="path20"
   inkscape:connector-curvature="0"
   style="fill:#1d71b8" />
	<path
   class="st1"
   d="m 395,316.8 c -0.4,0 -0.8,-0.4 -0.8,-0.8 v -14.2 c 0,-0.4 0.4,-0.8 0.8,-0.8 h 7.6 c 0.4,0 0.7,0.3 0.7,0.7 0,0.4 -0.3,0.7 -0.7,0.7 h -6.8 v 5.7 h 5.2 c 0.4,0 0.7,0.3 0.7,0.7 0,0.4 -0.3,0.7 -0.7,0.7 h -5.2 v 5.8 h 7 c 0.4,0 0.7,0.3 0.7,0.7 0,0.4 -0.3,0.7 -0.7,0.7 H 395 Z"
   id="path22"
   inkscape:connector-curvature="0"
   style="fill:#1d71b8" />
	<path
   class="st1"
   d="m 406.2,302.5 c -0.4,0 -0.8,-0.3 -0.8,-0.8 0,-0.5 0.3,-0.8 0.8,-0.8 h 10 c 0.4,0 0.8,0.3 0.8,0.8 0,0.5 -0.3,0.8 -0.8,0.8 H 412 v 13.7 c 0,0.4 -0.4,0.8 -0.8,0.8 -0.4,0 -0.8,-0.4 -0.8,-0.8 v -13.7 z"
   id="path24"
   inkscape:connector-curvature="0"
   style="fill:#1d71b8" />
	<path
   class="st1"
   d="m 420.6,316.8 c -0.4,0 -0.8,-0.4 -0.8,-0.8 v -14.2 c 0,-0.4 0.4,-0.8 0.8,-0.8 h 7.6 c 0.4,0 0.7,0.3 0.7,0.7 0,0.4 -0.3,0.7 -0.7,0.7 h -6.8 v 5.7 h 5.2 c 0.4,0 0.7,0.3 0.7,0.7 0,0.4 -0.3,0.7 -0.7,0.7 h -5.2 v 5.8 h 7 c 0.4,0 0.7,0.3 0.7,0.7 0,0.4 -0.3,0.7 -0.7,0.7 h -7.8 z"
   id="path26"
   inkscape:connector-curvature="0"
   style="fill:#1d71b8" />
	<path
   class="st1"
   d="m 443.4,301.6 v 14.6 c 0,0.4 -0.4,0.8 -0.8,0.8 -0.3,0 -0.5,-0.1 -0.7,-0.3 l -8.3,-12.5 v 12.1 c 0,0.4 -0.4,0.8 -0.8,0.8 -0.4,0 -0.8,-0.4 -0.8,-0.8 v -14.7 c 0,-0.4 0.4,-0.8 0.8,-0.8 0.3,0 0.5,0.2 0.6,0.3 l 8.3,12.5 v -12.1 c 0,-0.4 0.4,-0.8 0.8,-0.8 0.4,0 0.9,0.4 0.9,0.9 z"
   id="path28"
   inkscape:connector-curvature="0"
   style="fill:#1d71b8" />
	<path
   class="st1"
   d="m 446.5,316.8 c -0.4,0 -0.8,-0.3 -0.8,-0.8 0,-0.2 0,-0.3 0.1,-0.4 l 8.8,-13.1 H 447 c -0.4,0 -0.8,-0.3 -0.8,-0.8 0,-0.5 0.3,-0.8 0.8,-0.8 h 9 c 0.4,0 0.8,0.3 0.8,0.8 0,0.2 0,0.3 -0.1,0.4 l -8.7,13.1 h 8.4 c 0.4,0 0.8,0.3 0.8,0.8 0,0.4 -0.3,0.8 -0.8,0.8 z"
   id="path30"
   inkscape:connector-curvature="0"
   style="fill:#1d71b8" />
	<path
   class="st1"
   d="m 458.9,316.8 c -0.4,0 -0.8,-0.3 -0.8,-0.8 0,-0.2 0,-0.3 0.1,-0.4 l 8.8,-13.1 h -7.7 c -0.4,0 -0.8,-0.3 -0.8,-0.8 0,-0.5 0.3,-0.8 0.8,-0.8 h 9 c 0.4,0 0.8,0.3 0.8,0.8 0,0.2 0,0.3 -0.1,0.4 l -8.7,13.1 h 8.4 c 0.4,0 0.8,0.3 0.8,0.8 0,0.4 -0.3,0.8 -0.8,0.8 z"
   id="path32"
   inkscape:connector-curvature="0"
   style="fill:#1d71b8" />
	<path
   class="st1"
   d="m 472.8,316.8 c -0.4,0 -0.8,-0.4 -0.8,-0.8 v -14.2 c 0,-0.4 0.4,-0.8 0.8,-0.8 h 7.6 c 0.4,0 0.7,0.3 0.7,0.7 0,0.4 -0.3,0.7 -0.7,0.7 h -6.8 v 5.7 h 5.2 c 0.4,0 0.7,0.3 0.7,0.7 0,0.4 -0.3,0.7 -0.7,0.7 h -5.2 v 5.8 h 7 c 0.4,0 0.7,0.3 0.7,0.7 0,0.4 -0.3,0.7 -0.7,0.7 h -7.8 z"
   id="path34"
   inkscape:connector-curvature="0"
   style="fill:#1d71b8" />
	<path
   class="st1"
   d="m 495.6,301.6 v 14.6 c 0,0.4 -0.4,0.8 -0.8,0.8 -0.3,0 -0.5,-0.1 -0.7,-0.3 l -8.3,-12.5 v 12.1 c 0,0.4 -0.4,0.8 -0.8,0.8 -0.4,0 -0.8,-0.4 -0.8,-0.8 v -14.7 c 0,-0.4 0.4,-0.8 0.8,-0.8 0.3,0 0.5,0.2 0.6,0.3 l 8.3,12.5 v -12.1 c 0,-0.4 0.4,-0.8 0.8,-0.8 0.4,0 0.9,0.4 0.9,0.9 z"
   id="path36"
   inkscape:connector-curvature="0"
   style="fill:#1d71b8" />
	<path
   class="st1"
   d="m 498.9,302.5 c -0.4,0 -0.8,-0.3 -0.8,-0.8 0,-0.5 0.3,-0.8 0.8,-0.8 h 10 c 0.4,0 0.8,0.3 0.8,0.8 0,0.5 -0.3,0.8 -0.8,0.8 h -4.2 v 13.7 c 0,0.4 -0.4,0.8 -0.8,0.8 -0.4,0 -0.8,-0.4 -0.8,-0.8 v -13.7 z"
   id="path38"
   inkscape:connector-curvature="0"
   style="fill:#1d71b8" />
	<path
   class="st1"
   d="m 514.1,316.2 c 0,0.4 -0.4,0.8 -0.8,0.8 -0.4,0 -0.8,-0.4 -0.8,-0.8 v -14.4 c 0,-0.4 0.4,-0.8 0.8,-0.8 h 4.7 c 2.6,0 4.5,2 4.5,4.5 0,2.4 -1.7,4.4 -4.2,4.5 l 4.3,5.7 c 0.1,0.1 0.2,0.3 0.2,0.5 0,0.4 -0.4,0.8 -0.8,0.8 -0.2,0 -0.5,-0.1 -0.7,-0.4 l -4.8,-6.7 h -2.4 z m 0,-7.7 h 3.9 c 1.6,0 2.8,-1.3 2.8,-3 0,-1.7 -1.2,-3 -2.9,-3 H 514 v 6 z"
   id="path40"
   inkscape:connector-curvature="0"
   style="fill:#1d71b8" />
	<path
   class="st1"
   d="m 525.7,312 v -10.4 c 0,-0.4 0.4,-0.8 0.8,-0.8 0.4,0 0.8,0.4 0.8,0.8 V 312 c 0,1.9 0.7,3.6 3.9,3.6 3.2,0 3.9,-1.8 3.9,-3.6 v -10.4 c 0,-0.4 0.4,-0.8 0.8,-0.8 0.4,0 0.8,0.4 0.8,0.8 V 312 c 0,2.6 -1.1,5.2 -5.5,5.2 -4.4,-0.1 -5.5,-2.6 -5.5,-5.2 z"
   id="path42"
   inkscape:connector-curvature="0"
   style="fill:#1d71b8" />
	<path
   class="st1"
   d="m 547,313.8 -4.9,-9.2 v 11.6 c 0,0.4 -0.4,0.8 -0.8,0.8 -0.4,0 -0.8,-0.4 -0.8,-0.8 v -14.7 c 0,-0.4 0.4,-0.8 0.8,-0.8 0.4,0 0.6,0.2 0.7,0.4 l 5.7,10.7 5.7,-10.7 c 0.1,-0.2 0.3,-0.4 0.7,-0.4 0.4,0 0.8,0.4 0.8,0.8 v 14.7 c 0,0.4 -0.4,0.8 -0.8,0.8 -0.4,0 -0.8,-0.4 -0.8,-0.8 v -11.6 l -4.9,9.2 c -0.2,0.3 -0.4,0.4 -0.7,0.4 -0.3,0 -0.6,-0.1 -0.7,-0.4 z"
   id="path44"
   inkscape:connector-curvature="0"
   style="fill:#1d71b8" />
	<path
   class="st4"
   d="m 338.6,324.2 -2.6,9.3 c -0.1,0.3 -0.3,0.5 -0.6,0.5 -0.3,0 -0.5,-0.2 -0.6,-0.5 l -3.2,-11.3 c 0,-0.1 0,-0.1 0,-0.2 0,-0.3 0.3,-0.6 0.6,-0.6 0.3,0 0.5,0.3 0.6,0.5 l 2.7,9.5 2.6,-9.5 c 0.1,-0.3 0.3,-0.5 0.6,-0.5 0.3,0 0.5,0.2 0.6,0.5 l 2.6,9.5 2.7,-9.5 c 0.1,-0.2 0.3,-0.5 0.6,-0.5 0.3,0 0.6,0.3 0.6,0.6 0,0.1 0,0.1 0,0.2 l -3.2,11.3 c -0.1,0.3 -0.3,0.5 -0.6,0.5 -0.3,0 -0.5,-0.2 -0.6,-0.5 z"
   id="path46"
   inkscape:connector-curvature="0"
   style="fill:#878787" />
	<path
   class="st4"
   d="m 348.2,333.8 c -0.3,0 -0.6,-0.3 -0.6,-0.6 v -11.1 c 0,-0.3 0.3,-0.6 0.6,-0.6 h 5.9 c 0.3,0 0.6,0.3 0.6,0.6 0,0.3 -0.3,0.6 -0.6,0.6 h -5.3 v 4.4 h 4 c 0.3,0 0.6,0.3 0.6,0.6 0,0.3 -0.3,0.6 -0.6,0.6 h -4 v 4.5 h 5.5 c 0.3,0 0.6,0.3 0.6,0.6 0,0.3 -0.3,0.6 -0.6,0.6 h -6.1 z"
   id="path48"
   inkscape:connector-curvature="0"
   style="fill:#878787" />
	<path
   class="st4"
   d="m 358.4,333.3 c 0,0.3 -0.3,0.6 -0.6,0.6 -0.3,0 -0.6,-0.3 -0.6,-0.6 V 322 c 0,-0.3 0.3,-0.6 0.6,-0.6 0.3,0 0.6,0.3 0.6,0.6 z"
   id="path50"
   inkscape:connector-curvature="0"
   style="fill:#878787" />
	<path
   class="st4"
   d="m 360.9,322.7 c -0.3,0 -0.6,-0.3 -0.6,-0.6 0,-0.3 0.3,-0.6 0.6,-0.6 h 7.8 c 0.3,0 0.6,0.3 0.6,0.6 0,0.3 -0.3,0.6 -0.6,0.6 h -3.3 v 10.7 c 0,0.3 -0.3,0.6 -0.6,0.6 -0.3,0 -0.6,-0.3 -0.6,-0.6 v -10.7 z"
   id="path52"
   inkscape:connector-curvature="0"
   style="fill:#878787" />
	<path
   class="st4"
   d="m 371.9,333.8 c -0.3,0 -0.6,-0.3 -0.6,-0.6 v -11.1 c 0,-0.3 0.3,-0.6 0.6,-0.6 h 5.9 c 0.3,0 0.6,0.3 0.6,0.6 0,0.3 -0.3,0.6 -0.6,0.6 h -5.3 v 4.4 h 4 c 0.3,0 0.6,0.3 0.6,0.6 0,0.3 -0.3,0.6 -0.6,0.6 h -4 v 4.5 h 5.5 c 0.3,0 0.6,0.3 0.6,0.6 0,0.3 -0.3,0.6 -0.6,0.6 h -6.1 z"
   id="path54"
   inkscape:connector-curvature="0"
   style="fill:#878787" />
	<path
   class="st4"
   d="m 382,333.3 c 0,0.3 -0.3,0.6 -0.6,0.6 -0.3,0 -0.6,-0.3 -0.6,-0.6 v -11.2 c 0,-0.3 0.3,-0.6 0.6,-0.6 h 3.6 c 2,0 3.5,1.5 3.5,3.5 0,1.9 -1.3,3.4 -3.3,3.5 l 3.4,4.5 c 0.1,0.1 0.1,0.3 0.1,0.4 0,0.3 -0.3,0.6 -0.6,0.6 -0.2,0 -0.4,-0.1 -0.5,-0.3 l -3.7,-5.2 H 382 Z m 0,-6 h 3.1 c 1.3,0 2.2,-1 2.2,-2.4 0,-1.4 -0.9,-2.4 -2.3,-2.4 h -3 z"
   id="path56"
   inkscape:connector-curvature="0"
   style="fill:#878787" />
	<path
   class="st4"
   d="m 391.5,333.8 c -0.3,0 -0.6,-0.3 -0.6,-0.6 v -11.1 c 0,-0.3 0.3,-0.6 0.6,-0.6 h 3.1 c 2.6,0 3.7,1.3 3.7,3.3 0,1.2 -0.8,2.2 -1.8,2.5 1.3,0.3 2.3,1.3 2.3,3.1 0,2.1 -1.3,3.5 -3.8,3.5 h -3.5 z m 0.6,-6.9 h 2.5 c 1.6,0 2.5,-0.8 2.5,-2.1 0,-1.3 -0.8,-2.1 -2.5,-2.1 h -2.5 z m 0,5.8 h 3 c 1.7,0 2.5,-0.9 2.5,-2.4 0,-1.5 -1,-2.4 -2.5,-2.4 h -3 z"
   id="path58"
   inkscape:connector-curvature="0"
   style="fill:#878787" />
	<path
   class="st4"
   d="m 402.4,333.3 c 0,0.3 -0.3,0.6 -0.6,0.6 -0.3,0 -0.6,-0.3 -0.6,-0.6 V 322 c 0,-0.3 0.3,-0.6 0.6,-0.6 0.3,0 0.6,0.3 0.6,0.6 z"
   id="path60"
   inkscape:connector-curvature="0"
   style="fill:#878787" />
	<path
   class="st4"
   d="m 411.6,332.6 c 0.3,0 0.6,0.3 0.6,0.6 0,0.3 -0.3,0.6 -0.6,0.6 H 406 c -0.3,0 -0.6,-0.3 -0.6,-0.6 V 322 c 0,-0.3 0.3,-0.6 0.6,-0.6 0.3,0 0.6,0.3 0.6,0.6 v 10.7 h 5 z"
   id="path62"
   inkscape:connector-curvature="0"
   style="fill:#878787" />
	<path
   class="st4"
   d="m 417.5,321.5 c 3.5,0 5.7,1.6 5.7,6.2 0,4.6 -2.2,6.2 -5.7,6.2 h -2.6 c -0.3,0 -0.6,-0.3 -0.6,-0.6 v -11.1 c 0,-0.3 0.3,-0.6 0.6,-0.6 h 2.6 z m -2,11.2 h 2 c 2.7,0 4.4,-1.2 4.4,-5 0,-3.8 -1.7,-5 -4.4,-5 h -2 z"
   id="path64"
   inkscape:connector-curvature="0"
   style="fill:#878787" />
	<path
   class="st4"
   d="M 425.5,330.1 V 322 c 0,-0.3 0.3,-0.6 0.6,-0.6 0.3,0 0.6,0.3 0.6,0.6 v 8.1 c 0,1.4 0.5,2.8 3.1,2.8 2.5,0 3,-1.4 3,-2.8 V 322 c 0,-0.3 0.3,-0.6 0.6,-0.6 0.3,0 0.6,0.3 0.6,0.6 v 8.1 c 0,2 -0.8,4 -4.3,4 -3.4,0 -4.2,-2 -4.2,-4 z"
   id="path66"
   inkscape:connector-curvature="0"
   style="fill:#878787" />
	<path
   class="st4"
   d="m 445.6,321.9 v 11.4 c 0,0.3 -0.3,0.6 -0.6,0.6 -0.2,0 -0.4,-0.1 -0.5,-0.3 L 438,324 v 9.4 c 0,0.3 -0.3,0.6 -0.6,0.6 -0.3,0 -0.6,-0.3 -0.6,-0.6 V 322 c 0,-0.3 0.3,-0.6 0.6,-0.6 0.2,0 0.4,0.1 0.5,0.3 l 6.5,9.7 V 322 c 0,-0.3 0.3,-0.6 0.6,-0.6 0.3,-0.1 0.6,0.2 0.6,0.5 z"
   id="path68"
   inkscape:connector-curvature="0"
   style="fill:#878787" />
	<path
   class="st4"
   d="m 456.8,331.5 v -2.7 h -3.1 c -0.3,0 -0.6,-0.3 -0.6,-0.6 0,-0.3 0.3,-0.6 0.6,-0.6 h 3.7 c 0.3,0 0.6,0.3 0.6,0.6 v 3.2 c 0,0.2 -0.1,0.4 -0.2,0.6 -0.9,1 -2.2,2 -4.4,2 -3.6,0 -5.7,-1.9 -5.7,-6.4 0,-4.3 2.2,-6.4 5.7,-6.4 1.7,0 3.3,0.8 4.1,1.9 0.1,0.1 0.1,0.3 0.1,0.4 0,0.3 -0.3,0.6 -0.6,0.6 -0.2,0 -0.3,-0.1 -0.5,-0.2 -0.6,-0.9 -1.8,-1.5 -3.2,-1.5 -2.8,0 -4.4,1.7 -4.4,5.3 0,3.8 1.6,5.3 4.4,5.3 1.8,-0.1 2.9,-0.8 3.5,-1.5 z"
   id="path70"
   inkscape:connector-curvature="0"
   style="fill:#878787" />
	<path
   class="st4"
   d="m 474.1,321.9 v 11.4 c 0,0.3 -0.3,0.6 -0.6,0.6 -0.2,0 -0.4,-0.1 -0.5,-0.3 l -6.4,-9.7 v 9.4 c 0,0.3 -0.3,0.6 -0.6,0.6 -0.3,0 -0.6,-0.3 -0.6,-0.6 v -11.4 c 0,-0.3 0.3,-0.6 0.6,-0.6 0.2,0 0.4,0.1 0.5,0.3 l 6.5,9.7 v -9.4 c 0,-0.3 0.3,-0.6 0.6,-0.6 0.2,0 0.5,0.3 0.5,0.6 z"
   id="path72"
   inkscape:connector-curvature="0"
   style="fill:#878787" />
	<path
   class="st4"
   d="m 476.2,327.7 c 0,-4.3 2.2,-6.4 5.7,-6.4 3.5,0 5.7,2.1 5.7,6.4 0,4.3 -2.2,6.4 -5.7,6.4 -3.5,0 -5.7,-2.1 -5.7,-6.4 z m 1.3,0 c 0,3.6 1.6,5.3 4.4,5.3 2.8,0 4.4,-1.7 4.4,-5.3 0,-3.6 -1.6,-5.3 -4.4,-5.3 -2.8,0 -4.4,1.7 -4.4,5.3 z"
   id="path74"
   inkscape:connector-curvature="0"
   style="fill:#878787" />
	<path
   class="st4"
   d="m 491.2,333.3 c 0,0.3 -0.3,0.6 -0.6,0.6 -0.3,0 -0.6,-0.3 -0.6,-0.6 v -11.2 c 0,-0.3 0.3,-0.6 0.6,-0.6 h 3.6 c 2,0 3.5,1.5 3.5,3.5 0,1.9 -1.3,3.4 -3.3,3.5 l 3.4,4.5 c 0.1,0.1 0.1,0.3 0.1,0.4 0,0.3 -0.3,0.6 -0.6,0.6 -0.2,0 -0.4,-0.1 -0.5,-0.3 l -3.7,-5.2 h -1.8 v 4.8 z m 0,-6 h 3.1 c 1.3,0 2.2,-1 2.2,-2.4 0,-1.4 -0.9,-2.4 -2.3,-2.4 h -3 z"
   id="path76"
   inkscape:connector-curvature="0"
   style="fill:#878787" />
	<path
   class="st4"
   d="m 503.2,321.5 c 3.5,0 5.7,1.6 5.7,6.2 0,4.6 -2.2,6.2 -5.7,6.2 h -2.6 c -0.3,0 -0.6,-0.3 -0.6,-0.6 v -11.1 c 0,-0.3 0.3,-0.6 0.6,-0.6 h 2.6 z m -1.9,11.2 h 2 c 2.7,0 4.4,-1.2 4.4,-5 0,-3.8 -1.7,-5 -4.4,-5 h -2 z"
   id="path78"
   inkscape:connector-curvature="0"
   style="fill:#878787" />
	<path
   class="st4"
   d="m 512.4,333.3 c 0,0.3 -0.3,0.6 -0.6,0.6 -0.3,0 -0.6,-0.3 -0.6,-0.6 v -11.2 c 0,-0.3 0.3,-0.6 0.6,-0.6 h 3.6 c 2,0 3.5,1.5 3.5,3.5 0,1.9 -1.3,3.4 -3.3,3.5 l 3.4,4.5 c 0.1,0.1 0.1,0.3 0.1,0.4 0,0.3 -0.3,0.6 -0.6,0.6 -0.2,0 -0.4,-0.1 -0.5,-0.3 l -3.7,-5.2 h -1.8 v 4.8 z m 0,-6 h 3.1 c 1.3,0 2.2,-1 2.2,-2.4 0,-1.4 -0.9,-2.4 -2.3,-2.4 h -3 z"
   id="path80"
   inkscape:connector-curvature="0"
   style="fill:#878787" />
	<path
   class="st4"
   d="m 522.5,328.1 v 5.3 c 0,0.3 -0.3,0.6 -0.6,0.6 -0.3,0 -0.6,-0.3 -0.6,-0.6 V 322 c 0,-0.3 0.3,-0.6 0.6,-0.6 0.3,0 0.6,0.3 0.6,0.6 v 5 h 6.4 v -5 c 0,-0.3 0.3,-0.6 0.6,-0.6 0.3,0 0.6,0.3 0.6,0.6 v 11.4 c 0,0.3 -0.3,0.6 -0.6,0.6 -0.3,0 -0.6,-0.3 -0.6,-0.6 v -5.3 z"
   id="path82"
   inkscape:connector-curvature="0"
   style="fill:#878787" />
	<path
   class="st4"
   d="m 533.7,333.8 c -0.3,0 -0.6,-0.3 -0.6,-0.6 v -11.1 c 0,-0.3 0.3,-0.6 0.6,-0.6 h 5.9 c 0.3,0 0.6,0.3 0.6,0.6 0,0.3 -0.3,0.6 -0.6,0.6 h -5.3 v 4.4 h 4 c 0.3,0 0.6,0.3 0.6,0.6 0,0.3 -0.3,0.6 -0.6,0.6 h -4 v 4.5 h 5.5 c 0.3,0 0.6,0.3 0.6,0.6 0,0.3 -0.3,0.6 -0.6,0.6 h -6.1 z"
   id="path84"
   inkscape:connector-curvature="0"
   style="fill:#878787" />
	<path
   class="st4"
   d="m 543.9,333.3 c 0,0.3 -0.3,0.6 -0.6,0.6 -0.3,0 -0.6,-0.3 -0.6,-0.6 V 322 c 0,-0.3 0.3,-0.6 0.6,-0.6 0.3,0 0.6,0.3 0.6,0.6 z"
   id="path86"
   inkscape:connector-curvature="0"
   style="fill:#878787" />
	<path
   class="st4"
   d="m 555.5,321.9 v 11.4 c 0,0.3 -0.3,0.6 -0.6,0.6 -0.2,0 -0.4,-0.1 -0.5,-0.3 l -6.4,-9.7 v 9.4 c 0,0.3 -0.3,0.6 -0.6,0.6 -0.3,0 -0.6,-0.3 -0.6,-0.6 v -11.4 c 0,-0.3 0.3,-0.6 0.6,-0.6 0.2,0 0.4,0.1 0.5,0.3 l 6.5,9.7 v -9.4 c 0,-0.3 0.3,-0.6 0.6,-0.6 0.2,0 0.5,0.3 0.5,0.6 z"
   id="path88"
   inkscape:connector-curvature="0"
   style="fill:#878787" />
</g>
</svg>